# xmcd
#
# Track frame offsets:
#	150
#	18010
#	34586
#	52885
#	69022
#	81333
#	103214
#	117611
#	142923
#	158925
#
# Disc length: 2451 seconds
#
# Revision: 1
# Processed by: cddbd v1.5.2PL0 Copyright (c) Steve Scherf et al.
# Submitted via: dBpowerAMP V4.0
#
DISCID=7809910a
DTITLE=Stonefield - As Above, So Below
DYEAR=2016
DGENRE=Rock
TTITLE0=Sister
TTITLE1=Dream
TTITLE2=Changes
TTITLE3=Love
TTITLE4=Stranger
TTITLE5=Eyes
TTITLE6=Higher
TTITLE7=Midnight
TTITLE8=Lonely
TTITLE9=Eagle
EXTD=
EXTT0=
EXTT1=
EXTT2=
EXTT3=
EXTT4=
EXTT5=
EXTT6=
EXTT7=
EXTT8=
EXTT9=
PLAYORDER=
